<svg xmlns="http://www.w3.org/2000/svg" width="1277.591" height="252" viewBox="0 0 1277.591 252"><path fill="#3b5bb2" fill-rule="evenodd" d="M538.188 368.492c0 5.567-.317 4.438.582 9.488 1.027 5.747-.77 4.422-2.032 8.965-.629 2.258-.73 4.547-.34 7.075.387 2.484 1.032 4.265 1.95 6.203.336.707.945 2.273 1.027 3.05.477 4.536-.094 14.329.148 15.914.52 3.38.157 7.153.645 10.383.219 1.434.894 3.13.894 4.86 0 3.047-2.69 10.98-3.136 16.043-.13 1.484-.606 2.691-.692 4.105l-.52 9.07c-.148 1.329-.444 3.079-.444 4.59 0 10.594 1.593 18.442 4.402 26.766 1.39 4.129 3.61 7.918 6 11.504 1.039 1.562 3.348 4.152 4.762 5.55 2.343 2.317 4.246 4.993 6.593 7.313 3.375 3.336 5.301 5.672 7.746 9.754.832 1.395 1.778 2.863 2.547 4.406 2.063 4.13 3.47 9.133 2.918 14.035-.191 1.727-.14 3.73.145 5.684.156 1.066.054 1.898.16 2.953.219 2.113.914 4.086 2.184 5.492l2.28 2.516c.602.531 1.087.668 1.786 1.09 3.367 2.023 7.203 3.61 11.125 4.46 5.457 1.184 11.46 1.684 16.305-1.64 2.359-1.621 4.215-7.125 6.984-9.797.7-.68 1.176-.844 1.914-1.441 3.547-2.88 11.024-8.082 15.418-8.082h1.438c0 1.89-.961 1.636-2.875 2.16-1.407.379-2.043.656-3.278 1.277-3.324 1.672-6.629 3.528-9.535 5.813-7.262 5.719-6.582 9.75 3.395 12.156 1.27.305 1.203.3 2.925.43 3.239.246 6.598-.016 9.848-.016 6.84 0 11.852.914 17.984-2.156 4.63-2.317 3.774-4.684 1.047-8.004-1.703-2.074-4.058-3.477-6.398-4.871-1.992-1.188-3.457-2.2-5.598-3.274-1.37-.687-1.656-.796-3.285-1.27-2.09-.612-3.031-.398-3.031-2.245 4.148 0 7.566 2.086 10.633 3.754 2.55 1.386 5.761 3.62 7.773 5.656 2.98 3.016 3.36 4.473 5.488 7.937 2.598 4.227 8.262 4.473 12.79 4.473 1.175 0 1.613-.273 2.464-.414l6.922-1.71c3.016-1 5.34-2.212 7.871-3.642 1.34-.753 1.852-1.738 2.946-2.808 2.472-2.41 2.199-5.524 2.675-8.832.102-.711.274-2.094.324-2.567.258-2.527-1.546-9.289 2.532-16.878.41-.762.8-1.336 1.258-2.098 1.218-2.024 2.175-4.102 3.613-5.973 1.62-2.105 6.433-7.035 6.96-7.906l3.298-3.66c.554-.711 1.015-1.098 1.636-1.715a44 44 0 0 0 7.54-9.965c2.937-5.285 3.238-6.758 5.081-12.183 1.258-3.715 1.825-7.778 2.223-11.684.086-.82.317-2.367.406-3.188.121-1.078-.047-2.175.102-3.257.309-2.254.055-5.575-.238-7.805l-2.606-21.371c-1.14-4.508-2.262-7.113-1.312-11.668 1.558-7.512.754-18.461.965-25.887.136-4.777 4.523-10.402 3.316-15.281-.688-2.79.023-2.856-1.703-5.977-2.41-4.359-.164-5.43-.164-10.144 0-5.32-.063-4.746-.52-9.313-.363-3.668-1.437-8.652-2.308-12.316-.641-2.68-1.235-5.422-1.922-7.91-.887-3.215-1.149-8.434-3.88-10.746-1.652-1.403-3.984-2.567-5.32-4.27-.976-1.242-.882-1.726-2.253-2.785-3.946-3.04-3.97-5.426-4.395-10.23-.113-1.313.063-.918-.394-2.004-.336-.805-.567-1.028-.59-2.047-2.168 0-2.856 2.41-3.364 4.547l-1.05 6.144c-.79 3.985-2.137 7.192-3.567 10.82-1.058 2.688-2.414 4.7-3.46 7.329-.372.933-.579 1.707-.958 2.64-2.343 5.778.559 7.5.653 11.68-2.086-1-14.786-3.567-18.371-4.41-3.079-.723-6.743-1.188-9.965-1.543-22.356-2.446-28.598 2.117-31.61 2.117-1.093 0-3.023-.758-4.215-1.059-11.87-2.984-25.476-1.964-37.402.438-2.875.582-16.707 3.566-18.562 4.457 0-3.813 2.847-5.582.57-11.84-1.426-3.914-3.281-7.02-4.781-10.805-3.7-9.3-3.38-13.875-4.563-17.257-.554-1.586-1.02-3.258-2.976-3.258-.133 1.601-.809 1.761-.97 3.828a81 81 0 0 1-.476 4.316c-.191 1.383-.492 2.621-1.254 3.543-1.16 1.399-2.832 2.274-3.812 3.617-4.961 6.813-7.184 3.446-9.45 12.372-.355 1.398-.48 2.687-.82 3.98-1.476 5.664-2.3 10.59-3.55 15.867-.36 1.504-.395 2.465-.633 4.164-.114.805-.07 1.446-.164 2.235-.114.937-.45 1.05-.45 2.183m3.835 2.399c0 4.632 1.387 11.246 3.434 15.27 2.285 4.491.617 3.683 1.293 6.855.527 2.492.512 4.87 1.434 7.199 2.34 5.906 1.933 6.48 5.445 11.82.617.938 1.058 1.742 1.633 2.684 1.316 2.164 2.86 7.062 4.742 8.441 1.887-1.383 1.937-5.437 4.035-6.996 1.11-.824 2.504-1.156 3.879-1.156v2.16c-2.29.61-2.555 3.387-3.016 5.375-.668 2.906-1.5 1.7-2.16 6.473l-.418 3.695c-.16 2.535-1.676 3.355-3.336 5.016-.718.718-1.3 1.703-2.34 1.98v.719c1.106.023.805.238 1.68.238 3.145 0 5.106-1.156 8.235.395.882.437 2.363 1.21 3.37 1.425 2.82.602 5.723.715 8.57 1.024.778.082 1.552-.035 2.306.094 2.918.496 6.812 1.097 9.406 2.582 1.613.921 2.031 1.675 4.078 1.675 3.277 0 8.96-1.707 12.969-2.136 3.027-.328 3.574-.313 3.574-2.899 0-2.89-4.043-4.797-4.555-6.715 4.426 0 5.692.032 8.239 4.95 1.128 2.175 1.804 5.828-1.133 6.949-3.254 1.242-7.192 1.484-10.434 2.515-2.965.942-3.265 1.149-4.586 3.809-.926 1.863-2.84 7.14-4.937 7.77-.848.25-.907.066-1.707.449l-2.434 1.883c-2.16 2.574-6.242 9.8-8.133 11.285-.574.453-2.261 1.074-3.168 1.152.442 1.899 2.188 1.918 3.836 1.918 1.145 0 4.004-1.809 4.895-2.781 1.254-1.367 2.152-2.887 3.437-4.235.563-.586.703-.863 1.207-1.43.649-.722.754-.527 1.012-1.624h.957c.496 2.12.961 3.765.961 5.992 0 1.941-.637 8.223 2.156 8.871 0 2.645.094 4.457-.3 7.133-.54 3.656-1.512 7.8-2.473 11.195l-2.64 8.149c-.817 2.128-2.259 6.382-2.259 8.53 0 4.145.25 5.743 2.157 9.352 1.039 1.965 1.722 4.211 2.539 6.336.945 2.465 2.511 7.336 4.808 8.618.89.5 2.5.835 3.602.765 5.656-.37 4.476-3.691 10.078-7.883 1.621-1.21 4.25-2.054 6.098-2.77 1.668-.648 5.593-1.23 7.882-1.23 2.547-4.816 1.918-12.785 1.918-18.46-2.77 0-5.859.718-8.152.718-3.09 0-8.672-1.187-10.637-2.308-1.02-.586-2.16-2.5-2.93-3.547-.808-1.106-1.777-3.512-1.777-4.934 0-1.828 1.903-4.758 2.93-5.703 2.36-2.156 5.566-3.363 8.664-4.281 2.23-.664 4.531-1.426 7.11-1.524 5.097-.199 10.988-.402 16.078-.02 2.46.188 4.953.524 7.328 1.305 3.789 1.25 7.62 2.57 10.261 5.563.735.836 1.817 2.84 1.817 3.941 0 1.2-.102 1.852-.242 2.875-.246 1.801-1.422 2.91-2.43 4.282-.516.695-.766 1.355-1.496 1.863-1.649 1.14-7.82 2.488-10.696 2.488-2.632 0-5.472-.719-8.394-.719 0 5.227-.606 11.29.98 16.282.239.746.625 1.32.7 2.18 4.195 0 7.52.988 10.96 2.464 3.942 1.692 4.938 2.57 7.465 5.961 1.422 1.906 2.493 3.203 5.668 3.422 4.434.3 5.825-2.59 7.215-5.953.524-1.27.903-1.914 1.332-3.227.375-1.148.797-2.16 1.196-3.36 2.242-6.757 5.675-7.288 2.101-18.46-1.89-5.906-4.187-11.512-5.25-17.77-.183-1.093-.273-2.25-.5-3.335a30 30 0 0 1-.45-3.391c-.085-1.309-.292-2.383-.1-3.434.316-1.754-.079-.605.765-1.398l.36-.36c1.632-2.144 1.07-8.101 1.343-11.125.176-1.988.422-1.714.742-3.093h.957c.114 1.347 2.418 3.183 3.262 4.414.438.64.664.855 1.156 1.48.836 1.063 1.446 1.79 2.578 2.453 2.055 1.207 2.68 1.723 4.997 1.723 1.293 0 2.136-.809 2.394-1.918-4.098-.344-6.43-5.453-8.531-8.492-1.492-2.156-2.774-4.344-5.074-5.715-1.704-1.016-2.676-.168-3.903-2.57-.953-1.86-1.824-3.66-2.789-5.602-1.394-2.797-1.601-2.996-4.664-3.969-3.55-1.128-12.441-1.668-12.441-4.824 0-3.406.703-4.832 2.629-7.441.28-.38 1.87-1.774 2.359-1.957.816-.309 2.871-.192 4.121-.192-.297 1.118-1.746 2.043-2.5 3.012-1.558 2-2.055 2.613-2.055 5.14 0 1.15 2.38 1.329 3.579 1.462 4.578.5 8.882 2.136 13.445 2.136 1.582 0 2.262-.828 3.305-1.492 2.082-1.324 4.906-1.887 7.316-2.277.98-.156 1.11-.223 1.984-.41 3.22-.696 9.207.16 14.328-2.457 3.395-1.735 5.176-.559 8.555-.559.902 0 .453-.156 1.438-.238-.098-1.16-1.008-1.688-1.786-2.293-1.226-.957-3.515-3.32-3.699-4.93-.261-2.27-.117-5.469-1.101-7.531-.524-1.09-1.051-1.594-1.383-2.934-.445-1.781-.836-4.976-3.063-5.57v-2.16c1.344 0 2.594.285 3.743 1.058 2.418 1.63 2.156 5.747 4.171 7.094.622-.453 1.73-2.613 2.262-3.492.856-1.406 1.16-2.387 1.89-3.863.708-1.426 1.345-2.32 2.126-3.63.41-.675.691-1.116 1.11-1.765 1.269-1.96 2.066-3.476 2.831-5.8.95-2.88 2.383-5.766 2.7-8.813.124-1.188.035-1.61.253-2.637.684-3.203-1.101-2.41 1.38-7 1.495-2.765 1.984-5.773 2.612-8.894 1.743-8.61.223-11.098-1.675-19.465-.895-3.957-3.567-16.563-5.012-19.684-1.262-2.726-2.27-2.37-4.816-3.578-1.543-.734-2.641-3.078-3.645-4.504-1.176-1.676-1.75-3.976-2.254-6.137l-3.3 14.442c-1.25 5.887-1.731 13.691 2.636 18.348 1.602 1.71 1.59 1.628 2.742 3.734 1.328 2.426 1.485 1.746 3.676 2.797l-.23 1.449c-1.215 2.258-4.375.867-6.145.129-2.926-1.215-5.172-2.918-8.46-4.008l-12.763-4.02c-5.832-1.82-12.148-1.57-18.101-2.519-1.34-.21-2.281-.594-3.688-.629-1.574-.043-2.605-.043-3.886-.187-5.203-.594-19.73-.399-22.758 2.808-.317.34-.801 1.203-.938 1.703-.035-.043-.093-.168-.11-.132-.003.019-1.21-1.965-2.55-2.485-1.336-.515-2.773-.848-4.238-1.273-3.465-1.008-8.922-.907-13-.907-3.324 0-7.805.372-11.203 1.028-5.438 1.047-12.606.75-18.508 2.594l-12.582 3.96c-2.3.801-3.785 1.547-5.824 2.567-1.047.523-1.555.965-2.645 1.433-1.816.774-5.32 2.356-6.394-.222l-.149-1.29c2.211-1.062 2.457-.527 3.598-2.874 2.875-5.926 6.23-2.817 6.23-17.028 0-3.273-1.293-6.695-1.937-9.808-.317-1.54-.66-2.996-1.04-4.715l-1.097-4.895c-1 4.29-2.058 6.141-4.613 9.532-.477.632-.434.675-1.133 1.023-4.945 2.45-4.3.617-6.773 9.535-.313 1.13-.473 1.91-.73 3.344-.18 1-.606 2.219-.852 3.223-1.157 4.707-4.122 15.996-4.122 20.336m274.297 90.156c0 18.973 25.446 21.64 32.614 7.914 2.246-4.3 2.304-10.363.082-14.715-1.266-2.473-1.637-2.57-3.5-4.414-3.223-3.195-7.602-4.371-12.891-4.371-8.27 0-16.305 6.64-16.305 15.586m-270.46 6.71c0 7.173 7.94 11.485 13.234 14.821 2.597 1.637 3.937 2.445 7.625 2.445.855 0 1.949-.718 2.238-1.359.211-.473.5-2.36.64-2.957 1.2 0 2.41.016 3.61.012 1.969-.008 1.48-.41 2.863-.73 0-2.11-.32-2.434-.949-3.848l-1.68-3.118c-1.222-2.082-1.605-5.015-2.644-7.183 2.914.066 7.726 6.039 11.125.816.808-1.238 1.523-2.293 2.3-3.453-1.14-.265-2.46-.52-3.636-.68-1.508-.203-2.48-.5-3.828-.726-1.356-.23-2.762-.48-3.875-.684-3.774-.687-6.012-2.402-7.84-5.586-.59-1.03-1.883-5.578-1.922-7.191-6.574-.547-5.613-5.035-13.195 7.664-1.45 2.422-1.473 2.074-2.7 5.21-.78 1.997-1.367 3.872-1.367 6.548m154.171-19.421c-.058 2.64-1.683 7.465-3.703 9.726-2.34 2.622-6.363 3.141-9.726 3.7-1.399.234-2.399.55-3.817.738a41 41 0 0 0-3.855.703c2.797 4.172 3.597 7.57 9.515 4.238.965-.543 2.692-1.574 3.914-1.601-1.007 2.098-1.375 5.02-2.59 7.004-1.449 2.367-2.687 4.101-2.687 7.144 1.383.32.895.723 2.867.73 1.2.005 2.406-.011 3.61-.011.21 2.566.75 4.316 3.593 4.316 2.668 0 4.875-1.082 6.477-2.156 6.95-4.648 16.488-8.969 12.86-20.058-.743-2.27-1.59-4.04-2.712-5.918-8.25-13.82-7.136-9.102-13.746-8.555M889.45 476.87h7.196v-6.715h11.265l3.36 6.715h7.671c-.21-.906-.593-1.203-1.039-2.078-.68-1.336-3.277-5.531-3.515-6.555 10.043-5.316 6.472-22.058-6.235-22.058H889.45Zm-118.445 0h6.953v-21.34c.676.496.89 1.551 1.356 2.48.507 1.005.753 1.551 1.21 2.622l7.504 16.238h5.993c.437-.824.77-1.785 1.199-2.64l8.804-18.047c.29-.446.098-.172.309-.414v21.101h7.191V446.18c-10.418 0-8.718-.785-10.308 2.398l-4.238 8.473c-.575 1.152-4.997 10.574-5.832 11.187l-2.637-5.515c-.903-1.805-1.738-3.711-2.64-5.516l-1.356-2.715-3.918-8.312h-9.59Zm34.527-41.242h6.953v-6.953h10.79c.882 0 1.304 1.86 2.167 3.347.692 1.192 1.246 2.36 1.907 3.606h7.675c-.414-1.547-4.207-7.121-4.558-8.633 1.746-1.168 2.777-1.832 3.988-3.683 2.899-4.422 2.106-11.235-1.398-14.727-1.602-1.594-5.02-3.649-8.102-3.649h-19.422Zm117.727 41.242h7.672l1.488-3.547c.27-.62.133-1.008.91-1.008h17.742c.883 0 2.2 3.707 2.399 4.555h7.433c-.086-1.031-5.46-13.348-6.316-15.266-.488-1.093-6.316-14.52-6.395-15.425h-11.507Zm-83.2-58.266c0 5.641.376 9.399 4.977 13.485 4.797 4.265 11.461 5.035 17.7 3.437 1.917-.488 3.398-1.504 4.894-2.297.305.575.8 1.711.96 2.399h4.556v-17.98H858.52v5.992h5.515c1.203 0 1.074.214 2.156.242v3.355c-.539.145-5.832 3.938-12.425 2.117-10.493-2.898-8.082-18.66 2.117-18.66 4.793 0 8.172.285 11.027 4.555 1.738-1.164 3.613-2.113 5.516-3.117-.434-1.63-2.516-3.328-3.778-4.375-4.78-3.957-13.378-4.547-19.144-2.242-5.059 2.023-9.445 7.363-9.445 13.09m-105.98-5.992c0 4.11.535 6.742 5.11 8.797 2.21.992 7.062 1.492 10.003 1.746 3.602.309 8.454.192 8.489 3.156.039 3.266-5.383 3.801-8.016 3.801-6.309 0-9.172-1.937-13.668-4.312-.195.847-1.035 2.02-1.535 2.777-.535.813-1.363 2.043-1.582 2.977l3.07 1.726c6.633 4.047 21.207 4.5 26.606-1.304 2.816-3.024 4.687-12.75-7.614-14.813-2.406-.402-5.234-.652-7.695-.937-2.363-.27-6.215-.211-6.215-2.657 0-4.117 12.016-4.48 19.422.48.203-.757 2.559-4.007 3.356-5.515-.676-.18-.813-.398-1.391-.765-6.535-4.165-17.16-4.938-24.027-1.395-2.297 1.184-4.313 3.676-4.313 6.238m1.68 41.957c0 14.434 23.734 6.778 23.734 12.95 0 3.832-5.797 3.835-8.629 3.835-5.574 0-9.582-2.062-12.949-4.316-1.062 2.008-2.316 3.793-3.355 5.754 2.578.602 4.644 4.797 17.261 4.797 15.09 0 17.18-10.934 12.418-15.774-.66-.668-1.37-1.293-2.148-1.687-.942-.48-1.824-.805-2.918-1.16-3.04-.989-10.027-1.153-13.688-1.899-1.152-.234-2.156-.472-2.507-1.347-1.45-3.621 5.476-4.16 7.144-4.024 2.336.188 4.817.446 6.883 1.047 2.129.621 3.64 1.629 5.367 2.543.344-1.473 2.73-3.86 3.117-5.512-.68-.183-.812-.398-1.39-.765-.496-.317-1.008-.578-1.535-.864-6.649-3.605-20.934-4.34-25.473 2.243-.637.925-1.332 2.754-1.332 4.18m33.328-32.847c0 15.21 19.012 18.468 27.156 10.375 2.719-2.7 4.254-6.496 4.254-11.813v-15.348h-7.195v16.786c0 2.351-1.059 5.113-2.942 6.648-1.804 1.48-4.765 1.777-7.574 1.473-6.48-.703-6.746-7.14-6.746-12.438v-12.469h-6.953Zm109.336 0c0 1.972.617 4.77 1.273 6.16 1.614 3.418 4.102 5.808 7.598 7.265 8.05 3.356 22.535.704 22.535-14.863v-15.348h-7.191v16.305c0 6.797-4.258 9.004-10.059 8.633-6.113-.39-7.203-5.465-7.203-11.988v-12.95h-6.953Zm-25.176 30.93h12.465v24.218h7.195v-24.219h12.227v-6.472h-31.887Zm60.422-41.481h12.465v24.457h6.953v-24.457h12.469v-6.235h-31.887Zm-90.156 48.914v2.398c0 4.602 4.343 8.871 8.87 8.871 3.09 0 4.806.075 7.477-1.878 3.325-2.434 4.067-6.22 3.496-10.29-.52-3.703-3.394-6.46-7.074-7.316-1.824-.422-4.281-.414-6.203.152-3.512 1.04-6.566 4.633-6.566 8.063m-11.028-37.883h11.028c7.691 0 7.074-10.789.242-10.789h-11.27Zm84.16 41.238h11.508c2.184 0 4.793-1.73 4.793-4.554v-1.438c0-2.863-2.605-4.797-5.511-4.797h-10.79Zm-224.187-11.27c.316 1.18 3.05 2.833 4.078 3.36 3.04 1.551 2.613 1.676 6.953 1.676 2.79 0 9.559-4.062 10.508-7.953.2-.82.453-1.543.52-2.356-.883 0-2.008.172-3.078.278-.864.086-1.899.32-2.82.535-3.325.781-9.255 1.586-11.513 2.156-1.597.403-3.925 1.23-4.648 2.305m-92.789 5.036c1.559 0 2.902.027 4.41-.383 1.477-.398 5.735-3.203 6.617-4.41-.343-1.285-2.992-2.105-4.261-2.453l-17.797-3.063c.023 1.051.687 3.493 1.152 4.125 1.68 2.286 6.664 6.184 9.879 6.184m355.816 8.875h13.188c-.129-1.574-4.824-11.742-5.274-13.668H941c-.086 1.043-3.46 8.656-4.113 10.274-.414 1.023-.887 2.417-1.403 3.394M1214.27 128.102h31.867c-.317-3.797-11.664-28.375-12.746-33.028h-5.793c-.211 2.528-8.368 20.914-9.942 24.828-.996 2.477-2.136 5.84-3.386 8.2m-93.864-6.375h27.809c5.285 0 11.59-4.184 11.59-11.008v-3.477c0-6.914-6.301-11.59-13.328-11.59h-26.07Zm-176.722-8.11v5.793c0 11.117 10.492 21.438 21.437 21.438 7.469 0 11.613.183 18.059-4.536 8.039-5.882 9.828-15.035 8.449-24.87-1.254-8.95-8.203-15.614-17.086-17.676-4.414-1.024-10.348-1.004-14.996.37-8.485 2.509-15.863 11.192-15.863 19.481m71.847-17.965h30.13v58.524h17.382V95.652h29.55v-15.64h-77.062Zm-283.914 4.637c0 34.879 57.36 16.375 57.36 31.29 0 9.257-14.016 9.269-20.86 9.269-13.465 0-23.152-4.98-31.285-10.43-2.566 4.848-5.605 9.168-8.113 13.906 6.23 1.453 11.226 11.59 41.718 11.59 36.458 0 41.508-26.426 30-38.113-1.593-1.621-3.304-3.13-5.187-4.086-2.277-1.16-4.406-1.938-7.05-2.797-7.345-2.387-24.231-2.785-33.079-4.586-2.785-.566-5.21-1.148-6.055-3.258-3.504-8.758 13.235-10.054 17.266-9.726 5.64.457 11.633 1.078 16.625 2.53 5.148 1.505 8.797 3.938 12.973 6.15.832-3.567 6.601-9.329 7.535-13.329-1.64-.437-1.969-.957-3.367-1.847-1.2-.766-2.434-1.399-3.707-2.09-16.063-8.703-50.582-10.485-61.555 5.422-1.543 2.238-3.219 6.66-3.219 10.105m453.102 53.887h18.543l3.593-8.574c.657-1.5.32-2.434 2.2-2.434h42.879c2.129 0 5.316 8.96 5.793 11.008h17.96c-.207-2.488-13.195-32.25-15.261-36.887-1.18-2.64-15.266-35.094-15.446-37.277h-27.812Zm-367.93 0h16.805v-51.57c1.636 1.203 2.148 3.753 3.277 5.992 1.23 2.433 1.82 3.75 2.93 6.343l18.129 39.235h14.484c1.05-1.988 1.856-4.317 2.895-6.375l21.28-43.617c.692-1.079.231-.41.74-.996v50.988h17.382V80.012c-25.18 0-21.074-1.903-24.914 5.793l-10.238 20.472c-1.395 2.79-12.079 25.559-14.098 27.04l-6.375-13.329c-2.18-4.36-4.195-8.972-6.371-13.324-1.11-2.219-2.086-4.191-3.285-6.566l-9.465-20.086h-23.176Zm286.234 0h17.383v-16.223h27.23l8.114 16.223h18.54c-.509-2.188-1.43-2.903-2.513-5.02-1.644-3.226-7.922-13.367-8.496-15.84 24.274-12.843 15.645-53.304-15.066-53.304h-45.192Zm-176.722-38.242c0 45.855 61.492 52.304 78.812 19.132 5.43-10.402 5.574-25.043.196-35.562-3.059-5.973-3.954-6.211-8.454-10.668-7.785-7.719-18.37-10.563-31.156-10.563-19.98 0-39.398 16.043-39.398 37.66M577.29 138.328c1.48 0 2.753.024 4.183-.363 1.398-.38 5.437-3.035 6.277-4.184-.328-1.219-2.84-1.996-4.043-2.324l-16.875-2.902c.02.992.652 3.308 1.09 3.91 1.594 2.168 6.316 5.863 9.367 5.863m87.991-4.773c.297 1.117 2.89 2.683 3.867 3.183 2.883 1.473 2.48 1.59 6.59 1.59 2.649 0 9.07-3.851 9.965-7.543.192-.777.43-1.46.496-2.23-.836 0-1.906.16-2.922.261-.816.082-1.797.301-2.675.508-3.149.738-8.77 1.504-10.914 2.043-1.516.383-3.723 1.168-4.407 2.188m26.149-3.637c-.059 2.5-1.598 7.078-3.512 9.219-2.223 2.488-6.035 2.98-9.223 3.511-1.324.22-2.277.52-3.62.7a37 37 0 0 0-3.653.668c2.648 3.957 3.41 7.175 9.02 4.02.913-.516 2.554-1.493 3.71-1.52-.953 1.988-1.304 4.757-2.453 6.64-1.379 2.246-2.547 3.89-2.547 6.774 1.309.304.848.687 2.715.695 1.137.004 2.285-.012 3.422-.012.203 2.434.715 4.09 3.41 4.09 2.531 0 4.621-1.023 6.145-2.043 6.586-4.406 15.633-8.504 12.191-19.02-.707-2.152-1.508-3.827-2.574-5.609-7.82-13.11-6.766-8.636-13.031-8.113m-146.2 18.418c0 6.797 7.528 10.887 12.551 14.05 2.461 1.555 3.73 2.317 7.23 2.317.81 0 1.848-.68 2.122-1.289.199-.445.476-2.234.605-2.8 1.14 0 2.29.015 3.426.011 1.867-.008 1.402-.39 2.715-.695 0-1.996-.3-2.309-.899-3.649l-1.593-2.953c-1.16-1.976-1.524-4.758-2.512-6.812 2.77.062 7.328 5.722 10.555.773.761-1.172 1.441-2.176 2.18-3.273a37 37 0 0 0-3.45-.645c-1.43-.191-2.351-.476-3.629-.691a360 360 0 0 1-3.676-.645c-3.578-.656-5.699-2.281-7.433-5.3-.563-.977-1.79-5.286-1.82-6.817-6.235-.52-5.325-4.777-12.516 7.266-1.375 2.296-1.399 1.968-2.559 4.945-.742 1.887-1.297 3.668-1.297 6.207m-3.636-91.86c0 4.391 1.316 10.665 3.254 14.481 2.168 4.262.586 3.492 1.226 6.5.5 2.363.485 4.621 1.36 6.828 2.218 5.602 1.836 6.145 5.164 11.207.586.89 1.004 1.653 1.547 2.547 1.25 2.05 2.714 6.695 4.5 8.004 1.789-1.309 1.835-5.156 3.824-6.633 1.054-.781 2.375-1.097 3.68-1.097v2.046c-2.172.579-2.426 3.215-2.86 5.098-.633 2.754-1.426 1.61-2.05 6.137l-.395 3.508c-.153 2.402-1.59 3.175-3.164 4.753-.68.68-1.235 1.614-2.22 1.875v.684c1.052.023.763.227 1.595.227 2.98 0 4.84-1.098 7.808.375.836.414 2.239 1.148 3.196 1.351 2.675.57 5.43.68 8.129.969.734.078 1.468-.031 2.183.09 2.77.472 6.461 1.043 8.918 2.449 1.531.875 1.93 1.586 3.871 1.586 3.11 0 8.496-1.613 12.297-2.024 2.871-.312 3.39-.296 3.39-2.75 0-2.738-3.835-4.546-4.32-6.367 4.2 0 5.395.032 7.813 4.696 1.07 2.062 1.71 5.523-1.078 6.59-3.082 1.18-6.817 1.406-9.89 2.382-2.813.895-3.099 1.09-4.349 3.614-.878 1.77-2.695 6.773-4.683 7.367-.805.238-.86.062-1.617.426l-2.309 1.785c-2.05 2.445-5.922 9.297-7.715 10.703-.543.426-2.14 1.02-3 1.09.418 1.804 2.074 1.82 3.637 1.82 1.086 0 3.793-1.711 4.64-2.637 1.188-1.297 2.04-2.738 3.262-4.015.532-.555.664-.82 1.145-1.356.613-.683.715-.5.957-1.543h.91c.469 2.016.91 3.574.91 5.688 0 1.84-.605 7.793 2.047 8.41 0 2.508.086 4.226-.289 6.765-.508 3.465-1.434 7.395-2.344 10.614l-2.504 7.726c-.773 2.02-2.14 6.055-2.14 8.09 0 3.93.238 5.445 2.043 8.871.984 1.864 1.632 3.992 2.406 6.008.898 2.336 2.387 6.953 4.558 8.172.848.473 2.375.793 3.418.723 5.364-.352 4.247-3.5 9.56-7.473 1.534-1.149 4.03-1.95 5.78-2.629 1.582-.613 5.305-1.164 7.477-1.164 2.414-4.566 1.82-12.125 1.82-17.508-2.629 0-5.558.68-7.73.68-2.934 0-8.227-1.121-10.09-2.188-.969-.554-2.05-2.37-2.777-3.363-.766-1.047-1.688-3.328-1.688-4.68 0-1.73 1.805-4.511 2.781-5.406 2.235-2.043 5.278-3.187 8.215-4.062 2.113-.625 4.297-1.348 6.742-1.446 4.832-.187 10.422-.379 15.246-.015 2.332.175 4.696.496 6.95 1.238 3.593 1.184 7.226 2.437 9.73 5.277.7.79 1.723 2.688 1.723 3.735 0 1.136-.098 1.757-.23 2.726-.231 1.707-1.348 2.758-2.305 4.059-.489.66-.727 1.285-1.418 1.765-1.563 1.086-7.414 2.36-10.145 2.36-2.492 0-5.187-.68-7.957-.68 0 4.957-.574 10.707.93 15.438.226.71.593 1.254.66 2.07 3.98 0 7.133.934 10.398 2.336 3.739 1.601 4.68 2.437 7.078 5.652 1.348 1.809 2.36 3.04 5.375 3.246 4.204.286 5.52-2.457 6.84-5.648.496-1.203.856-1.813 1.262-3.055.36-1.09.758-2.05 1.137-3.187 2.125-6.41 5.383-6.914 1.992-17.508-1.793-5.598-3.969-10.914-4.98-16.852-.176-1.035-.258-2.132-.473-3.164a28 28 0 0 1-.426-3.21c-.082-1.243-.277-2.258-.098-3.258.301-1.665-.074-.575.727-1.325l.34-.343c1.55-2.032 1.015-7.68 1.273-10.551.168-1.883.403-1.621.707-2.934h.91c.106 1.281 2.29 3.02 3.09 4.188.414.61.63.808 1.094 1.402.797 1.008 1.371 1.7 2.45 2.328 1.945 1.145 2.538 1.633 4.734 1.633 1.226 0 2.027-.766 2.273-1.82-3.887-.32-6.098-5.168-8.094-8.051-1.414-2.043-2.629-4.117-4.808-5.418-1.617-.965-2.54-.16-3.703-2.438-.903-1.765-1.727-3.468-2.645-5.312-1.32-2.652-1.516-2.84-4.422-3.766-3.367-1.07-11.797-1.578-11.797-4.57 0-3.234.668-4.582 2.492-7.059.266-.359 1.774-1.683 2.235-1.855.777-.293 2.726-.184 3.914-.184-.285 1.063-1.66 1.938-2.375 2.86-1.477 1.894-1.945 2.476-1.945 4.87 0 1.09 2.254 1.263 3.39 1.388 4.344.476 8.422 2.023 12.75 2.023 1.5 0 2.145-.781 3.137-1.41 1.973-1.258 4.648-1.793 6.934-2.16.933-.153 1.054-.211 1.882-.391 3.055-.66 8.73.152 13.59-2.328 3.215-1.649 4.906-.531 8.11-.531.855 0 .43-.149 1.363-.227-.09-1.098-.953-1.598-1.692-2.172-1.164-.906-3.332-3.148-3.511-4.676-.246-2.152-.106-5.187-1.043-7.14-.492-1.035-.992-1.512-1.313-2.781-.422-1.692-.789-4.723-2.898-5.286v-2.046c1.273 0 2.457.269 3.543 1 2.293 1.55 2.047 5.453 3.957 6.73.59-.43 1.64-2.477 2.148-3.313.809-1.332 1.098-2.265 1.793-3.664.668-1.351 1.27-2.199 2.016-3.437.387-.645.652-1.063 1.05-1.68 1.204-1.855 1.958-3.293 2.684-5.5.903-2.73 2.262-5.465 2.559-8.355.117-1.13.035-1.528.242-2.5.648-3.035-1.043-2.285 1.309-6.637 1.418-2.625 1.879-5.477 2.476-8.434 1.653-8.168.211-10.523-1.586-18.46-.851-3.754-3.386-15.704-4.754-18.665-1.195-2.585-2.152-2.25-4.566-3.394-1.469-.695-2.508-2.918-3.457-4.274-1.117-1.585-1.664-3.765-2.14-5.816l-3.13 13.695c-1.183 5.582-1.636 12.98 2.5 17.399 1.52 1.62 1.508 1.547 2.602 3.539 1.258 2.3 1.41 1.66 3.484 2.652l-.215 1.38c-1.156 2.136-4.148.816-5.828.12-2.777-1.156-4.902-2.765-8.023-3.8l-12.102-3.817c-5.53-1.727-11.52-1.488-17.168-2.387-1.27-.199-2.164-.562-3.492-.597-1.496-.035-2.472-.04-3.687-.176-4.934-.563-18.711-.375-21.582 2.664-.301.32-.762 1.14-.887 1.613-.035-.039-.09-.16-.106-.125-.003.016-1.148-1.863-2.418-2.355-1.27-.489-2.628-.805-4.02-1.207-3.284-.953-8.46-.86-12.327-.86-3.153 0-7.399.352-10.625.973-5.153.992-11.953.71-17.547 2.457l-11.934 3.758c-2.18.762-3.59 1.469-5.523 2.433-.992.497-1.473.918-2.508 1.36-1.723.734-5.043 2.234-6.066-.207l-.14-1.227c2.1-1.004 2.331-.5 3.413-2.726 2.727-5.618 5.91-2.668 5.91-16.145 0-3.105-1.226-6.348-1.84-9.3-.3-1.462-.625-2.844-.984-4.473l-1.043-4.64c-.945 4.065-1.95 5.823-4.375 9.038-.45.598-.41.64-1.074.969-4.688 2.324-4.078.586-6.422 9.043-.293 1.07-.45 1.812-.691 3.172-.172.945-.575 2.101-.809 3.054-1.098 4.465-3.906 15.168-3.906 19.286m-3.64-2.273c0 5.277-.298 4.207.554 8.996.972 5.45-.73 4.192-1.926 8.504-.598 2.14-.691 4.313-.32 6.703.363 2.356.976 4.047 1.843 5.883.32.676.899 2.156.977 2.895.45 4.3-.09 13.586.14 15.09.493 3.203.145 6.785.61 9.847.207 1.36.852 2.965.852 4.61 0 2.886-2.555 10.414-2.977 15.214-.125 1.403-.574 2.551-.656 3.887l-.492 8.606c-.141 1.261-.422 2.917-.422 4.351 0 10.043 1.511 17.488 4.172 25.383 1.32 3.914 3.421 7.504 5.691 10.91.984 1.477 3.176 3.938 4.516 5.262 2.222 2.195 4.027 4.73 6.254 6.933 3.199 3.164 5.023 5.38 7.343 9.25.793 1.32 1.684 2.715 2.418 4.18 1.953 3.914 3.29 8.66 2.766 13.309-.184 1.632-.133 3.539.137 5.386.144 1.012.05 1.805.152 2.805.207 2 .863 3.871 2.07 5.203l2.16 2.387c.575.504 1.036.633 1.7 1.031 3.187 1.922 6.828 3.426 10.547 4.234 5.175 1.122 10.867 1.598 15.46-1.554 2.239-1.54 4-6.758 6.622-9.293.668-.64 1.117-.797 1.816-1.367 3.363-2.727 10.453-7.664 14.621-7.664h1.363c0 1.793-.91 1.554-2.726 2.046-1.336.364-1.938.625-3.11 1.215-3.148 1.586-6.285 3.344-9.039 5.512-6.886 5.422-6.242 9.246 3.22 11.527 1.202.29 1.14.286 2.773.41 3.07.231 6.253-.019 9.34-.019 6.484 0 11.238.871 17.054-2.043 4.387-2.195 3.578-4.441.992-7.59-1.617-1.969-3.851-3.297-6.07-4.617-1.89-1.129-3.277-2.086-5.309-3.105-1.3-.653-1.57-.754-3.113-1.208-1.98-.578-2.875-.375-2.875-2.128 3.934 0 7.176 1.98 10.082 3.562 2.418 1.313 5.465 3.434 7.371 5.36 2.828 2.863 3.188 4.242 5.207 7.527 2.461 4.008 7.836 4.242 12.13 4.242 1.112 0 1.526-.258 2.335-.39l6.563-1.626c2.859-.945 5.066-2.093 7.464-3.449 1.27-.719 1.754-1.648 2.793-2.664 2.344-2.285 2.086-5.238 2.54-8.375.097-.676.257-1.984.304-2.437.246-2.395-1.465-8.805 2.399-16 .39-.723.761-1.27 1.195-1.989 1.156-1.922 2.062-3.89 3.43-5.668 1.535-1.996 6.097-6.672 6.597-7.496l3.125-3.469c.528-.675.965-1.046 1.555-1.628a41.8 41.8 0 0 0 7.148-9.454c2.785-5.007 3.07-6.402 4.817-11.55 1.195-3.524 1.73-7.375 2.11-11.078.081-.778.3-2.247.386-3.024.113-1.02-.047-2.062.097-3.09.29-2.136.051-5.285-.23-7.398l-2.469-20.266c-1.082-4.273-2.144-6.746-1.246-11.066 1.48-7.125.719-17.508.918-24.547.129-4.531 4.285-9.863 3.145-14.492-.657-2.645.023-2.707-1.614-5.668-2.289-4.133-.16-5.149-.16-9.617 0-5.047-.058-4.5-.488-8.832-.348-3.477-1.363-8.207-2.191-11.68-.606-2.543-1.172-5.14-1.82-7.5-.845-3.05-1.095-8-3.68-10.192-1.57-1.328-3.782-2.433-5.047-4.05-.926-1.176-.836-1.637-2.137-2.637-3.742-2.887-3.762-5.148-4.164-9.703-.113-1.246.055-.871-.375-1.899-.32-.765-.54-.976-.559-1.941-2.058 0-2.71 2.281-3.191 4.313l-.996 5.824c-.746 3.777-2.028 6.82-3.383 10.261-1.004 2.547-2.29 4.454-3.281 6.946-.356.89-.551 1.62-.907 2.508-2.226 5.476.528 7.109.618 11.074-1.98-.95-14.024-3.383-17.422-4.18-2.918-.687-6.395-1.129-9.45-1.465-21.199-2.32-27.117 2.008-29.972 2.008-1.04 0-2.871-.719-4-1.004-11.254-2.832-24.16-1.863-35.469.414-2.726.551-15.84 3.383-17.601 4.227 0-3.617 2.699-5.293.539-11.227-1.348-3.71-3.106-6.656-4.532-10.246-3.507-8.82-3.207-13.16-4.324-16.367-.527-1.504-.969-3.086-2.824-3.086-.125 1.516-.77 1.668-.918 3.625a76 76 0 0 1-.453 4.098c-.18 1.312-.469 2.484-1.192 3.359-1.097 1.324-2.683 2.152-3.613 3.43-4.703 6.46-6.808 3.265-8.96 11.73-.337 1.328-.458 2.551-.778 3.774-1.402 5.37-2.18 10.043-3.371 15.047-.336 1.43-.367 2.34-.594 3.949-.11.761-.066 1.37-.156 2.117-.11.89-.43 1-.43 2.074M193.86 121.703h26.652c18.582 0 17.097-26.074.582-26.074h-27.235Zm244.515-26.652h30.129v59.101h16.8V95.051h30.134V79.984h-77.063Zm-85.176 25.496c0 4.762 1.496 11.52 3.082 14.879 3.903 8.265 9.906 14.047 18.356 17.566 19.457 8.106 54.465 1.696 54.465-35.922V79.984h-17.383v39.403c0 16.422-10.293 21.754-24.309 20.86-14.77-.942-17.406-13.212-17.406-28.974V79.984h-16.805Zm-264.215 0c0 36.754 45.942 44.629 65.633 25.07 6.567-6.527 10.274-15.703 10.274-28.547V79.984h-17.383v40.563c0 5.676-2.567 12.351-7.11 16.066-4.359 3.57-11.52 4.297-18.304 3.559-15.66-1.703-16.305-17.258-16.305-30.059V79.984H88.984ZM4.391 98.527c0 9.938 1.293 16.293 12.343 21.258 5.344 2.403 17.075 3.61 24.176 4.219 8.703.75 20.43.469 20.516 7.629.09 7.894-13.008 9.191-19.375 9.191-15.239 0-22.164-4.683-33.024-10.43-.48 2.055-2.507 4.883-3.714 6.72-1.29 1.964-3.297 4.937-3.82 7.187l7.417 4.172c16.031 9.785 51.25 10.875 64.297-3.149 6.805-7.308 11.328-30.812-18.402-35.797-5.813-.972-12.653-1.574-18.598-2.261-5.71-.66-15.012-.516-15.012-6.422 0-9.953 29.035-10.824 46.93 1.16.488-1.828 6.188-9.688 8.113-13.328-1.64-.438-1.965-.957-3.363-1.848-15.79-10.066-41.469-11.937-58.066-3.375C9.266 86.316 4.39 92.336 4.39 98.527m256.101 14.485c0 13.629.914 22.715 12.028 32.59 11.593 10.3 27.699 12.16 42.773 8.304 4.64-1.183 8.215-3.636 11.832-5.55.734 1.386 1.93 4.128 2.316 5.796h11.012v-43.457h-35.348v14.485h13.329c2.914 0 2.593.52 5.214.578v8.113c-1.3.348-14.09 9.516-30.027 5.113-25.351-7.004-19.531-45.093 5.113-45.093 11.586 0 19.746.699 26.653 11.007 4.199-2.808 8.734-5.101 13.328-7.53-1.05-3.934-6.078-8.04-9.133-10.567-11.55-9.57-32.324-10.989-46.258-5.422-12.23 4.887-22.832 17.797-22.832 31.633m-83.433 41.14h16.8v-16.804h26.075c2.129 0 3.152 4.492 5.242 8.086 1.672 2.879 3.012 5.703 4.61 8.718h18.538c-1-3.742-10.156-17.21-11.008-20.859 4.22-2.828 6.704-4.434 9.637-8.906 7.004-10.688 5.086-27.153-3.387-35.59-3.863-3.848-12.12-8.813-19.578-8.813h-46.93Zm0 0"/><path fill="#3b5bb2" d="M750.598 203.324h-.106c-.851 2.317-2.394 3.48-4.629 3.48-1.68 0-3.027-.609-4.05-1.82-1.028-1.21-1.543-2.894-1.543-5.039 0-2.785.71-5.039 2.132-6.785q2.132-2.609 5.137-2.61c1.809 0 2.945.708 3.406 2.134h.075l.18-1.797h4.093c-.547 5.164-.82 8.543-.82 10.125q-.001 2.55 1.386 2.55 1.454.001 2.403-1.925c.629-1.29.945-2.973.945-5.04q0-4.258-2.715-6.976c-1.808-1.816-4.336-2.723-7.574-2.723q-5.21 0-8.66 3.633c-2.305 2.418-3.453 5.367-3.453 8.856 0 3.37 1.02 6.031 3.05 7.968 2.032 1.946 4.84 2.915 8.426 2.915 2.727 0 5.23-.52 7.496-1.563v3.477c-2.074.89-4.746 1.332-8.007 1.332-4.473 0-8.122-1.29-10.93-3.856q-4.21-3.844-4.211-10.347-.001-6.628 4.492-11.141 4.501-4.517 11.574-4.516 6.552 0 10.602 3.504 4.05 3.502 4.05 9.23-.001 4.719-2.476 7.567c-1.644 1.895-3.687 2.848-6.125 2.848-1.203 0-2.18-.325-2.93-.965-.754-.645-1.156-1.485-1.218-2.516m-2.418-9.605q-1.64 0-2.664 1.863c-.692 1.242-1.032 2.684-1.032 4.324q.001 1.747.7 2.715.702.977 1.808.977c1.145 0 2.04-.614 2.7-1.84q.979-1.833.98-4.906c0-.977-.23-1.735-.684-2.293q-.678-.84-1.808-.84m19.347 15.36v-5.817a11.1 11.1 0 0 0 3.45 1.984c1.234.441 2.488.664 3.75.664.742 0 1.394-.07 1.945-.2.555-.136 1.012-.315 1.379-.558q.562-.357.832-.832a2.13 2.13 0 0 0 .273-1.05c0-.512-.14-.965-.433-1.36-.293-.406-.692-.773-1.2-1.113a11.5 11.5 0 0 0-1.796-.984 65 65 0 0 0-2.243-.97c-2.039-.843-3.558-1.882-4.566-3.105-1-1.23-1.504-2.707-1.504-4.441q0-2.04.82-3.504a6.94 6.94 0 0 1 2.23-2.41c.938-.633 2.032-1.094 3.27-1.39q1.865-.452 3.934-.45 2.038-.001 3.613.25 1.576.241 2.91.758v5.441a8.7 8.7 0 0 0-1.43-.8q-.774-.357-1.597-.579a10.6 10.6 0 0 0-1.629-.336 11 11 0 0 0-1.539-.113c-.672 0-1.273.063-1.82.195a4.6 4.6 0 0 0-1.387.532 2.7 2.7 0 0 0-.875.828 1.97 1.97 0 0 0-.312 1.086c0 .437.12.828.347 1.175.23.34.563.672.985.98.43.313.945.61 1.55.907.61.301 1.293.606 2.059.922 1.05.441 1.988.899 2.82 1.39.832.493 1.547 1.051 2.145 1.665a6.7 6.7 0 0 1 1.367 2.125c.316.797.469 1.715.469 2.773 0 1.457-.274 2.676-.824 3.672a6.74 6.74 0 0 1-2.254 2.399q-1.418.92-3.309 1.32a19 19 0 0 1-3.98.398c-1.43 0-2.797-.125-4.09-.367-1.29-.242-2.41-.601-3.36-1.086m51.832 1.007h-5.812v-15.621c0-1.688.074-3.555.215-5.59h-.14c-.306 1.602-.579 2.75-.821 3.46l-6.114 17.75h-4.808l-6.227-17.57q-.252-.706-.82-3.64h-.16c.156 2.57.234 4.832.234 6.77v14.44h-5.293v-26.093h8.614l5.328 15.469a21.7 21.7 0 0 1 .925 3.726h.114c.32-1.44.672-2.695 1.035-3.765l5.34-15.43h8.39Zm16.957.445c-3.742 0-6.785-1.219-9.14-3.648-2.356-2.434-3.528-5.602-3.528-9.512 0-4.125 1.192-7.46 3.586-10.008q3.587-3.82 9.5-3.82 5.59 0 9.04 3.66c2.296 2.434 3.445 5.652 3.445 9.64 0 4.102-1.192 7.407-3.578 9.923-2.38 2.511-5.493 3.765-9.325 3.765m.254-21.918c-2.062 0-3.703.77-4.914 2.317s-1.82 3.597-1.82 6.144c0 2.586.61 4.63 1.82 6.133q1.816 2.255 4.774 2.254c2.023 0 3.625-.73 4.82-2.191q1.781-2.193 1.781-6.09-.002-4.056-1.726-6.313-1.735-2.255-4.735-2.254m35.328.149h-7.457v21.324h-5.89v-21.324h-7.418v-4.77h20.765Zm25.403 21.324h-6.746l-4.063-6.719c-.3-.508-.59-.96-.87-1.367a8 8 0 0 0-.845-1.023 3.3 3.3 0 0 0-.894-.653 2.2 2.2 0 0 0-1.008-.23h-1.582v9.992h-5.89v-26.094h9.32q9.504.002 9.504 7.094c0 .914-.137 1.75-.418 2.523a6.9 6.9 0 0 1-1.184 2.078 7.5 7.5 0 0 1-1.848 1.606c-.718.445-1.52.8-2.41 1.055v.074q.584.177 1.133.59.539.408 1.055.957c.336.363.664.754.968 1.176.313.414.598.824.852 1.222Zm-16.008-21.695v7.265h2.547q1.892 0 3.035-1.09 1.165-1.113 1.164-2.754-.002-3.42-4.094-3.421Zm41.406 21.695h-6.41l-1.828-5.816h-9.336l-1.809 5.816h-6.375l9.5-26.094h6.977Zm-9.594-10.328-2.82-8.758c-.203-.66-.351-1.441-.441-2.352h-.14a9.7 9.7 0 0 1-.462 2.278l-2.851 8.832Zm11.653 9.32v-5.816a11.2 11.2 0 0 0 3.445 1.984q1.859.663 3.754.664c.738 0 1.39-.07 1.945-.2.551-.136 1.012-.315 1.38-.558.37-.238.652-.515.831-.832a2.13 2.13 0 0 0 .274-1.05c0-.512-.14-.965-.434-1.36-.293-.406-.691-.773-1.2-1.113a11.7 11.7 0 0 0-1.796-.984 65 65 0 0 0-2.242-.97c-2.04-.843-3.559-1.882-4.567-3.105-1-1.23-1.503-2.707-1.503-4.441q0-2.04.82-3.504a6.94 6.94 0 0 1 2.23-2.41c.938-.633 2.032-1.094 3.27-1.39q1.861-.452 3.93-.45c1.363 0 2.566.082 3.617.25q1.576.241 2.906.758v5.441a8.5 8.5 0 0 0-1.426-.8q-.774-.357-1.597-.579-.82-.236-1.63-.336a11 11 0 0 0-1.538-.113c-.672 0-1.274.063-1.82.195a4.6 4.6 0 0 0-1.387.532 2.7 2.7 0 0 0-.875.828 1.97 1.97 0 0 0-.313 1.086q0 .655.348 1.175c.23.34.558.672.984.98.426.313.941.61 1.55.907.61.301 1.294.606 2.06.922 1.046.441 1.988.899 2.82 1.39.832.493 1.547 1.051 2.14 1.665a6.6 6.6 0 0 1 1.368 2.125c.316.797.472 1.715.472 2.773 0 1.457-.273 2.676-.824 3.672a6.7 6.7 0 0 1-2.258 2.399q-1.412.92-3.304 1.32a19 19 0 0 1-3.981.398c-1.43 0-2.797-.125-4.09-.367s-2.41-.601-3.36-1.086m43.37-10.3q0 11.753-10.952 11.753c-7.09 0-10.63-3.828-10.63-11.48v-15.059h5.888v15.14q0 6.33 4.945 6.329 4.859.002 4.86-6.113v-15.356h5.89Zm27.575 11.308h-6.75l-4.062-6.719c-.297-.508-.59-.96-.871-1.367a8 8 0 0 0-.844-1.023 3.3 3.3 0 0 0-.895-.653 2.2 2.2 0 0 0-1.008-.23h-1.582v9.992h-5.89v-26.094h9.32q9.504.002 9.504 7.094c0 .914-.137 1.75-.414 2.523a7 7 0 0 1-1.188 2.078 7.5 7.5 0 0 1-1.843 1.606c-.723.445-1.524.8-2.414 1.055v.074c.394.117.765.316 1.132.59a8 8 0 0 1 1.055.957c.336.363.664.754.969 1.176.312.414.598.824.851 1.222Zm-16.012-21.695v7.265h2.547q1.892 0 3.04-1.09c.777-.742 1.16-1.66 1.16-2.754 0-2.28-1.368-3.421-4.094-3.421Zm39.88 19.941q-3.822 2.199-9.505 2.2-6.3.001-9.933-3.485-3.638-3.486-3.637-9.598 0-6.152 3.973-10.031 3.964-3.874 10.554-3.875 4.153.001 7.317 1.156v5.516q-3.02-1.751-7.39-1.75-3.658 0-5.962 2.37c-1.531 1.587-2.304 3.704-2.304 6.345q0 4.024 2.07 6.226c1.375 1.473 3.238 2.203 5.578 2.203 1.406 0 2.523-.195 3.352-.601v-5.102h-5.22v-4.695h11.106Zm26.355-9.555q-.001 11.754-10.953 11.754c-7.09 0-10.63-3.828-10.63-11.48v-15.059h5.891v15.14c0 4.22 1.645 6.329 4.946 6.329 3.234 0 4.855-2.035 4.855-6.113v-15.356h5.89Zm24.015-10.015h-7.457v21.324h-5.89v-21.324h-7.418v-4.77h20.765Zm0 0"/></svg>